PathFileType	4	(X/Y/Z)	 s05c0402.trc
DataRate	CameraRate	NumFrames	NumMarkers	Units	OrigDataRate	OrigDataStartFrame	OrigNumFrames
200	200	4	50	mm	200	751	2000
Frame#	Time	racr			lacr			c7			jug			rlel			rdr			llel			ldr			s2			lic			ric			lasi			rasi			rpsi			lpsi			rgt			lgt			rth1			rth2			rth3			rth4			rlfc			rmfc			rsh1			rsh2			rsh3			rsh4			rlmal			rmmal			rcal			rtoe			rmt5			lth1			lth2			lth4			lth3			llfc			lmfc			lsh1			lsh2			lsh3			lsh4			llmal			lmmal			lcal			ltoe			lmt5			SBIKE			LBIKE			RBIKE			
		X1	Y1	Z1	X2	Y2	Z2	X3	Y3	Z3	X4	Y4	Z4	X5	Y5	Z5	X6	Y6	Z6	X7	Y7	Z7	X8	Y8	Z8	X9	Y9	Z9	X10	Y10	Z10	X11	Y11	Z11	X12	Y12	Z12	X13	Y13	Z13	X14	Y14	Z14	X15	Y15	Z15	X16	Y16	Z16	X17	Y17	Z17	X18	Y18	Z18	X19	Y19	Z19	X20	Y20	Z20	X21	Y21	Z21	X22	Y22	Z22	X23	Y23	Z23	X24	Y24	Z24	X25	Y25	Z25	X26	Y26	Z26	X27	Y27	Z27	X28	Y28	Z28	X29	Y29	Z29	X30	Y30	Z30	X31	Y31	Z31	X32	Y32	Z32	X33	Y33	Z33	X34	Y34	Z34	X35	Y35	Z35	X36	Y36	Z36	X37	Y37	Z37	X38	Y38	Z38	X39	Y39	Z39	X40	Y40	Z40	X41	Y41	Z41	X42	Y42	Z42	X43	Y43	Z43	X44	Y44	Z44	X45	Y45	Z45	X46	Y46	Z46	X47	Y47	Z47	X48	Y48	Z48	X49	Y49	Z49	X50	Y50	Z50	
751	3.7550	817.119885	1261.737823	-92.725414	803.629451	1300.720692	-400.075614	809.373841	1375.655577	-249.370960	746.178334	1219.923569	-251.088875	579.398111	1139.959109	64.105540	685.236635	966.829995	-42.209624	562.585598	1174.084775	-558.314115	686.048102	970.568756	-478.726069	218.945490	1272.396098	-277.033386	382.071344	1229.877885	-400.369994	346.267028	1282.829066	-125.155973	404.824702	1170.867888	-351.989154	374.551112	1208.785723	-140.561286	258.506665	1316.721496	-239.913768	273.467585	1304.559990	-322.338738	283.786709	1169.481643	-89.082620	280.093680	1145.173802	-421.019978	373.073374	1091.300613	-73.900925	452.598809	1052.112182	-69.046134	500.207570	977.574656	-68.150080	476.716145	1077.863221	-83.577221	604.356747	866.402438	-92.126705	595.132470	864.371850	-206.321986	513.264419	809.617465	-72.909702	464.122534	736.203074	-83.727437	388.673250	696.582982	-88.144306	487.031780	714.929611	-106.507115	290.797178	594.603777	-99.581974	317.408449	615.980352	-175.460640	213.380598	607.811766	-142.470453	439.095890	417.440277	-151.169564	346.747760	455.916233	-81.100623	305.664522	1008.282351	-433.181196	338.875863	929.944919	-427.881845	372.933175	933.176260	-412.979551	326.673941	840.169828	-430.416275	324.115347	693.772683	-402.241457	299.467588	685.368947	-296.832171	235.895139	602.181526	-437.520101	206.918209	520.307442	-428.709895	139.907514	462.015390	-432.283623	232.845057	504.192010	-405.151322	81.313965	359.041503	-431.795620	143.351530	377.837321	-354.465370	14.017273	367.543975	-389.347119	205.639412	142.580242	-395.911955	111.775065	201.433471	-457.705273	-258.623695	898.343645	-279.557340	-43.631525	85.618542	-474.867123	-51.915130	80.401424	-77.438544	
752	3.7600	816.341691	1257.214957	-91.873533	803.175827	1299.148233	-398.177134	809.393357	1373.731988	-247.238952	744.881666	1218.083628	-250.363385	577.890601	1138.068953	65.414640	684.547788	966.775261	-42.111246	562.804055	1174.017654	-557.725745	686.255365	970.503460	-477.904052	219.417153	1275.489984	-277.824024	382.203908	1232.806330	-400.900904	345.938925	1284.322834	-125.261200	404.522094	1173.170172	-352.867355	373.998171	1210.286712	-141.406933	259.217625	1319.789113	-240.489246	274.293015	1307.482292	-322.544886	282.416825	1171.477972	-90.031213	281.023791	1147.613684	-422.180985	370.424889	1091.693141	-74.429393	449.276714	1051.158897	-69.349602	495.732661	975.844957	-68.547548	473.885029	1076.733421	-83.422417	599.185557	862.971168	-92.150531	590.203427	860.775601	-205.710206	508.601296	804.695043	-72.936592	460.736407	730.231452	-83.450671	386.131373	689.019389	-87.697255	483.566299	709.230014	-106.595018	290.593465	584.890713	-99.296794	316.398462	607.309464	-175.187205	212.340815	594.988388	-142.089240	446.604195	415.127052	-150.747947	352.345892	449.023465	-80.345876	309.028979	1010.004143	-433.342299	344.122192	932.601200	-426.580579	377.895374	936.728224	-411.076836	334.312181	842.478763	-428.600046	334.430644	695.665881	-400.551050	309.296979	687.977721	-295.229019	243.691118	606.394739	-436.739331	212.050696	525.698049	-428.140518	142.853699	469.522630	-431.562573	236.836311	508.779505	-403.656141	80.565816	367.987643	-431.609535	138.556953	383.197102	-354.144190	13.322623	378.350120	-389.028420	197.246164	146.821409	-395.536100	105.633041	209.162305	-457.003022	-258.245366	898.344371	-278.898785	-43.605206	85.833815	-474.792384	-51.870902	80.446174	-77.409274	
753	3.7650	815.514818	1252.911970	-91.109499	802.600123	1297.589187	-396.384822	809.248956	1371.800345	-245.456098	743.528639	1216.140131	-249.739667	576.318155	1136.214328	66.620434	683.874621	966.767791	-41.973720	562.955548	1173.960366	-557.227217	686.362588	970.421670	-477.113034	219.792168	1277.870440	-278.455054	382.471873	1235.549814	-401.496465	345.606697	1285.255919	-125.481474	404.339448	1175.110264	-353.696708	373.435419	1211.639002	-142.442998	260.226222	1322.936832	-242.131334	275.478573	1310.307476	-323.592167	281.207130	1172.709025	-90.828267	282.235139	1149.836019	-423.433520	367.627020	1091.338398	-75.374428	445.649922	1049.266045	-69.419199	490.856133	973.114060	-69.129093	470.552180	1074.185330	-83.098645	593.379541	858.612637	-92.142555	584.720103	856.085185	-205.472328	503.093995	798.650144	-72.829676	456.852700	723.211983	-83.192160	383.230645	680.326304	-87.293348	480.184051	702.599983	-106.263854	290.609907	574.010673	-98.804503	315.151792	597.654423	-175.039210	211.374412	581.002061	-141.621892	453.501345	412.297251	-150.197920	357.282493	441.465998	-79.682315	312.836320	1011.465978	-433.575108	349.838467	935.176465	-425.231799	383.233666	940.344448	-409.240088	342.524728	844.784467	-426.621474	344.818138	697.999411	-398.930283	319.424985	690.536115	-293.829826	252.022143	610.752133	-435.992208	217.466228	530.969542	-427.058235	146.474820	477.067812	-430.849390	241.619329	513.311994	-402.395968	80.343710	376.847239	-431.479722	134.194343	388.909150	-353.853363	13.132291	389.127235	-388.635682	189.501279	151.621051	-395.531049	100.204729	217.060172	-456.398565	-258.348049	898.621941	-278.879107	-43.588690	86.201356	-474.819504	-51.833397	80.505198	-77.351264	
754	3.7700	814.549389	1248.731632	-90.328167	802.048440	1296.130862	-394.768363	809.133609	1369.996861	-243.493773	742.169792	1214.162483	-249.199469	574.822950	1134.400544	67.641675	683.246946	966.766809	-41.729841	563.074052	1173.843224	-556.770206	686.386538	970.374293	-476.418820	220.435123	1279.682041	-279.076549	382.700987	1238.097300	-401.962731	345.333044	1285.752304	-125.793146	404.227704	1176.846720	-354.729666	373.061926	1212.281965	-143.340998	261.131588	1324.817279	-242.561495	276.697649	1312.549130	-324.539468	279.924499	1173.407792	-91.979605	283.661487	1151.742722	-424.715434	364.927443	1089.936048	-76.388376	441.722569	1046.383460	-69.338387	485.501135	969.374147	-69.412090	467.347187	1070.797174	-82.692019	586.937768	853.259844	-92.196532	578.667032	850.602150	-205.286626	496.904006	791.736767	-72.387840	452.818769	715.013579	-82.878206	380.075855	670.447140	-86.877776	476.464087	695.041219	-106.041679	289.844239	562.495701	-98.748586	313.585150	587.136263	-175.076711	210.454125	566.158841	-141.553803	459.612548	408.786099	-149.178840	361.967921	432.732824	-79.249505	316.963048	1012.851523	-433.966575	355.889677	937.653605	-423.949428	388.841757	943.923605	-407.454239	350.980335	847.178958	-424.697769	354.964428	700.502893	-397.369200	329.521763	693.241457	-292.326702	260.386844	614.835491	-434.986585	223.289561	536.365880	-426.152372	150.652538	484.709556	-430.371444	246.409446	518.092645	-401.072022	80.688463	385.745165	-431.363029	130.300532	394.971711	-353.598027	13.787807	399.937375	-388.342514	182.111337	156.476520	-395.446447	95.256855	225.207989	-455.906741	-258.050191	898.914014	-278.181427	-43.479669	86.605066	-474.839229	-51.796364	80.549990	-77.317079	
